<mxfile host="app.diagrams.net" modified="2024-04-26T16:52:13.668Z" agent="Mozilla/5.0 (X11; Linux x86_64; rv:122.0) Gecko/20100101 Firefox/122.0" version="24.3.1" etag="lDqzoiuuGUghpMbTlwMY" type="github">
  <diagram name="Page-1" id="Cw1P0HNPZCmHKnwz0BkA">
    <mxGraphModel>
      <root>
        <mxCell id="0" />
        <mxCell id="1" parent="0" />
      </root>
    </mxGraphModel>
  </diagram>
</mxfile>
